<svg xmlns="http://www.w3.org/2000/svg" width="91" height="20" viewBox="0 0 91 20">
    <g fill="#FF9300" fill-rule="evenodd">
        <path d="M12.54 12.222c0 .188-.017.448-.05.775a6.418 6.418 0 0 1-.148.866 4.074 4.074 0 0 1-.382.99c-.165.3-.37.568-.609.798a2.83 2.83 0 0 1-.803.541c-.28.127-.605.19-.966.19-.395 0-.752-.095-1.09-.292a5.948 5.948 0 0 1-1.178-.923l-.658-.652L5 16.443l.601.641c.499.53 1.074.98 1.71 1.337.684.384 1.449.579 2.27.579.798 0 1.545-.178 2.224-.529a5.307 5.307 0 0 0 1.73-1.435 6.58 6.58 0 0 0 1.089-2.086A8.21 8.21 0 0 0 15 12.44V0h-2.46v12.222M28.201 13.162c0 .488-.094.91-.288 1.291-.2.394-.47.738-.801 1.023-.337.29-.719.508-1.168.667a4.486 4.486 0 0 1-2.889 0 3.579 3.579 0 0 1-1.167-.667 3.29 3.29 0 0 1-.8-1.023 2.78 2.78 0 0 1-.29-1.29V0H18v13.162c0 .856.178 1.656.528 2.379a5.72 5.72 0 0 0 1.436 1.861c.6.514 1.3.914 2.08 1.188.772.272 1.599.41 2.456.41s1.684-.138 2.456-.41a6.34 6.34 0 0 0 2.072-1.193 5.966 5.966 0 0 0 1.426-1.847c.362-.726.546-1.53.546-2.388V0h-2.799v13.162M36.018 3.59c.317-.272.7-.489 1.137-.645a4.402 4.402 0 0 1 1.474-.238c.766 0 1.44.16 2.061.49.576.304 1.006.77 1.313 1.425l.41.876L45 4.433l-.408-.903c-.538-1.195-1.372-2.098-2.477-2.685C41.06.285 39.887 0 38.63 0c-.878 0-1.711.138-2.478.409a6.254 6.254 0 0 0-2.045 1.18 5.584 5.584 0 0 0-1.382 1.841 5.45 5.45 0 0 0-.505 2.334c0 .835.215 1.582.639 2.22a6.084 6.084 0 0 0 1.455 1.52c.555.413 1.18.768 1.855 1.055.624.266 1.251.507 1.85.71.505.178 1.024.377 1.544.59.47.195.905.43 1.29.7.352.248.64.531.858.841.171.244.254.517.254.836 0 .46-.084.86-.257 1.224-.176.37-.413.68-.726.95-.316.272-.698.489-1.136.644a4.41 4.41 0 0 1-1.475.239c-.766 0-1.44-.16-2.062-.49-.575-.304-1.004-.77-1.311-1.425l-.412-.877L32 15.567l.406.902c.538 1.195 1.367 2.098 2.46 2.684 1.049.562 2.227.847 3.504.847a7.41 7.41 0 0 0 2.478-.41 6.253 6.253 0 0 0 2.044-1.179 5.588 5.588 0 0 0 1.384-1.842c.335-.715.505-1.5.505-2.333 0-.834-.215-1.581-.64-2.222a6.107 6.107 0 0 0-1.455-1.519A9.093 9.093 0 0 0 40.83 9.44a26.697 26.697 0 0 0-1.88-.719c-.484-.155-.989-.344-1.501-.563a7.172 7.172 0 0 1-1.303-.719 3.57 3.57 0 0 1-.863-.835c-.167-.233-.248-.508-.248-.84 0-.46.084-.86.257-1.224.176-.37.414-.68.726-.95"/>
        <path d="M44 2.651h5.603V19h2.793V2.651H58V0H44v2.651M73 0H59v2.651h5.604V19h2.792V2.651H73V0"/>
        <path d="M81 17.272a7.047 7.047 0 0 1-2.82-.57 7.44 7.44 0 0 1-2.319-1.563 7.436 7.436 0 0 1-1.562-2.318A7.047 7.047 0 0 1 73.727 10c0-.998.193-1.947.572-2.821a7.436 7.436 0 0 1 1.562-2.318 7.455 7.455 0 0 1 2.318-1.562 7.056 7.056 0 0 1 2.82-.572c.997 0 1.946.193 2.822.572.885.383 1.665.91 2.317 1.562a7.433 7.433 0 0 1 1.563 2.318 7.05 7.05 0 0 1 .571 2.82 7.05 7.05 0 0 1-.571 2.822 7.44 7.44 0 0 1-1.562 2.318 7.44 7.44 0 0 1-2.318 1.562 7.046 7.046 0 0 1-2.821.571zm9.203-11.169a10.222 10.222 0 0 0-2.141-3.166 10.223 10.223 0 0 0-3.166-2.14A9.703 9.703 0 0 0 81 0c-1.37 0-2.68.268-3.896.797a10.359 10.359 0 0 0-3.175 2.137 9.926 9.926 0 0 0-2.146 3.176A9.824 9.824 0 0 0 71 10c0 1.368.263 2.677.782 3.89a10.073 10.073 0 0 0 2.143 3.185 10.071 10.071 0 0 0 3.185 2.143A9.837 9.837 0 0 0 81 20a9.931 9.931 0 0 0 7.066-2.929 10.379 10.379 0 0 0 2.137-3.175A9.706 9.706 0 0 0 91 10c0-1.37-.268-2.68-.797-3.897zM3 9.5a1.5 1.5 0 1 1-3 0 1.5 1.5 0 0 1 3 0"/>
    </g>
</svg>
